<svg xmlns="http://www.w3.org/2000/svg" width="46" height="46" style="fill:#fafafa" viewBox="0 0 46 46">
    <defs>
    </defs>
    <g id="loading" transform="translate(-.5 -.5)">
        <path id="Trazado_1357" data-name="Trazado 1357" class="cls-1" d="M13.508 12.531a3.008 3.008 0 0 0 3.008-3.008V3.508a3.008 3.008 0 0 0-6.016 0v6.015a3.008 3.008 0 0 0 3.008 3.008z" transform="translate(9.992)"/>
        <path id="Trazado_1358" data-name="Trazado 1358" class="cls-1" d="M12.978 8.664 8.723 4.411a3.088 3.088 0 0 0-4.253 0 3.008 3.008 0 0 0 0 4.253l4.255 4.253a2.988 2.988 0 0 0 2.128.878 3.008 3.008 0 0 0 2.126-5.131z" transform="translate(3.105 3.078)"/>
        <path id="Trazado_1359" data-name="Trazado 1359" class="cls-1" d="M.5 13.508a3.008 3.008 0 0 0 3.008 3.008h6.015a3.008 3.008 0 0 0 0-6.016H3.508A3.008 3.008 0 0 0 .5 13.508z" transform="translate(0 9.992)"/>
        <path id="Trazado_1360" data-name="Trazado 1360" class="cls-1" d="M10.566 15.529a2.984 2.984 0 0 0-2.126.878l-4.255 4.255a3.008 3.008 0 0 0 4.261 4.243L12.7 20.65a3.008 3.008 0 0 0-2.128-5.131z" transform="translate(2.882 14.977)"/>
        <path id="Trazado_1361" data-name="Trazado 1361" class="cls-1" d="M10.5 26.523a3.008 3.008 0 0 0 6.016 0v-6.015a3.008 3.008 0 1 0-6.016 0z" transform="translate(9.992 16.969)"/>
        <path id="Trazado_1362" data-name="Trazado 1362" class="cls-1" d="M16.49 16.452a3.008 3.008 0 0 0 0 4.253l4.255 4.253a3.014 3.014 0 1 0 4.27-4.258l-4.265-4.26a3.008 3.008 0 0 0-4.259.012z" transform="translate(15.069 15.021)"/>
        <path id="Trazado_1363" data-name="Trazado 1363" class="cls-1" d="M29.531 13.508a3.008 3.008 0 0 0-3.008-3.008h-6.015a3.008 3.008 0 0 0-3.008 3.008 3.008 3.008 0 0 0 3.008 3.008h6.016a3.008 3.008 0 0 0 3.007-3.008z" transform="translate(16.969 9.992)"/>
        <path id="Trazado_1364" data-name="Trazado 1364" class="cls-1" d="M22.683 3.41a2.984 2.984 0 0 0-2.126.878l-4.251 4.251a3.008 3.008 0 0 0 0 4.257 3.008 3.008 0 0 0 4.253 0l4.253-4.251a3.008 3.008 0 0 0-2.13-5.135z" transform="translate(14.882 2.925)"/>
    </g>
</svg>
