<?xml version="1.0" encoding="utf-8"?>
<!-- Generator: Adobe Illustrator 25.2.1, SVG Export Plug-In . SVG Version: 6.00 Build 0)  -->
<svg version="1.1" id="vector" xmlns="http://www.w3.org/2000/svg" xmlns:xlink="http://www.w3.org/1999/xlink" x="0px" y="0px"
	 viewBox="0 0 43.4 55" style="enable-background:new 0 0 43.4 55;" xml:space="preserve">
<style type="text/css">
	.st0{fill:#0A3987;}
	.st1{fill:#97C9F2;}
</style>
<g id="group" transform="translate(1 0)">
	<path id="path" class="st0" d="M41.4,20.8C41.4,32.5,20.6,55,20.6,55S-0.2,32.5-0.2,20.8S9,0,20.5,0S41.4,9.4,41.4,20.8z"/>
	<path id="path_1" class="st1" d="M36.3,20.8c0,4.5-1.9,8.5-4.8,11.3c-2.8,2.7-6.8,4.5-11,4.5c-4.3,0-8.1-1.7-11-4.5
		c-3-2.9-4.8-6.8-4.8-11.3c0-8.7,7-15.8,15.8-15.8S36.3,12.1,36.3,20.8z"/>
</g>
</svg>
